HIERARCHY
ROOT reference
{
  OFFSET 0 0 0
  CHANNELS 6 Xposition Yposition Zposition Zrotation Xrotation Yrotation
  JOINT Hips
  {
    OFFSET 350.331 86.7696 215.823
    CHANNELS 3 Zrotation Xrotation Yrotation
    JOINT RightUpLeg
    {
      OFFSET -9.29271 -1.56052 -0.0234997
      CHANNELS 3 Zrotation Xrotation Yrotation
      JOINT RightLeg
      {
        OFFSET -0.0199852 -41.8973 0.0465042
        CHANNELS 3 Zrotation Xrotation Yrotation
        JOINT RightFoot
        {
          OFFSET -0.344404 -43.5008 0.46033
          CHANNELS 3 Zrotation Xrotation Yrotation
          End Site
          {
            OFFSET 0 -7.69 17.5
          }
        }
      }
    }
    JOINT LeftUpLeg
    {
      OFFSET 9.27671 -1.61046 0.00923455
      CHANNELS 3 Zrotation Xrotation Yrotation
      JOINT LeftLeg
      {
        OFFSET 0.0572944 -41.8832 0.025786
        CHANNELS 3 Zrotation Xrotation Yrotation
        JOINT LeftFoot
        {
          OFFSET 0.630082 -40.4663 0.064708
          CHANNELS 3 Zrotation Xrotation Yrotation
          End Site
          {
            OFFSET 0 -7.69 17.5
          }
        }
      }
    }
    JOINT Spine
    {
      OFFSET 0.0336257 14.3009 0.0467062
      CHANNELS 3 Zrotation Xrotation Yrotation
      JOINT Spine1
      {
        OFFSET 0.0295985 9.72711 0.0239471
        CHANNELS 3 Zrotation Xrotation Yrotation
        JOINT Spine2
        {
          OFFSET 0.0515174 10.1206 0.00128176
          CHANNELS 3 Zrotation Xrotation Yrotation
          JOINT Spine3
          {
            OFFSET 0.0546141 9.71668 0.0122483
            CHANNELS 3 Zrotation Xrotation Yrotation
            JOINT Neck
            {
              OFFSET 0.0872189 10.3831 0.0511468
              CHANNELS 3 Zrotation Xrotation Yrotation
              JOINT Head
              {
                OFFSET 0.0544 9.47189 0.0313815
                CHANNELS 3 Zrotation Xrotation Yrotation
                End Site
                {
                  OFFSET 0 15.95 0
                }
              }
            }
            JOINT RightShoulder
            {
              OFFSET -3.15364 6.93551 0.0260198
              CHANNELS 3 Zrotation Xrotation Yrotation
              JOINT RightArm
              {
                OFFSET -12.7567 0.0626665 0.0664987
                CHANNELS 3 Zrotation Xrotation Yrotation
                JOINT RightForeArm
                {
                  OFFSET -26.5087 -0.073346 0.274032
                  CHANNELS 3 Zrotation Xrotation Yrotation
                  JOINT RightHand
                  {
                    OFFSET -26.0005 -0.196673 0.105827
                    CHANNELS 3 Zrotation Xrotation Yrotation
                    JOINT RightHandThumb1
                    {
                      OFFSET -2.48905 0.190105 3.12053
                      CHANNELS 3 Zrotation Xrotation Yrotation
                      JOINT RightHandThumb2
                      {
                        OFFSET -3.68274 0 0
                        CHANNELS 3 Zrotation Xrotation Yrotation
                        JOINT RightHandThumb3
                        {
                          OFFSET -2.55832 0 0
                          CHANNELS 3 Zrotation Xrotation Yrotation
                          End Site
                          {
                            OFFSET -2.194 0 0
                          }
                        }
                      }
                    }
                    JOINT RightInHandIndex
                    {
                      OFFSET -3.22368 0.508421 1.97842
                      CHANNELS 3 Zrotation Xrotation Yrotation
                      JOINT RightHandIndex1
                      {
                        OFFSET -5.21684 -0.091368 0.999158
                        CHANNELS 3 Zrotation Xrotation Yrotation
                        JOINT RightHandIndex2
                        {
                          OFFSET -3.61937 0 0
                          CHANNELS 3 Zrotation Xrotation Yrotation
                          JOINT RightHandIndex3
                          {
                            OFFSET -2.0521 0 0
                            CHANNELS 3 Zrotation Xrotation Yrotation
                            End Site
                            {
                              OFFSET -1.805 0 0
                            }
                          }
                        }
                      }
                    }
                    JOINT RightInHandMiddle
                    {
                      OFFSET -3.38211 0.517263 0.756737
                      CHANNELS 3 Zrotation Xrotation Yrotation
                      JOINT RightHandMiddle1
                      {
                        OFFSET -5.17411 -0.084 0.313895
                        CHANNELS 3 Zrotation Xrotation Yrotation
                        JOINT RightHandMiddle2
                        {
                          OFFSET -3.94947 0 0
                          CHANNELS 3 Zrotation Xrotation Yrotation
                          JOINT RightHandMiddle3
                          {
                            OFFSET -2.47579 0 0
                            CHANNELS 3 Zrotation Xrotation Yrotation
                            End Site
                            {
                              OFFSET -1.975 0 0
                            }
                          }
                        }
                      }
                    }
                    JOINT RightInHandRing
                    {
                      OFFSET -3.36516 0.537895 -0.128947
                      CHANNELS 3 Zrotation Xrotation Yrotation
                      JOINT RightHandRing1
                      {
                        OFFSET -4.63474 -0.022105 -0.478947
                        CHANNELS 3 Zrotation Xrotation Yrotation
                        JOINT RightHandRing2
                        {
                          OFFSET -3.44238 0 0
                          CHANNELS 3 Zrotation Xrotation Yrotation
                          JOINT RightHandRing3
                          {
                            OFFSET -2.3881 0 0
                            CHANNELS 3 Zrotation Xrotation Yrotation
                            End Site
                            {
                              OFFSET -1.857 0 0
                            }
                          }
                        }
                      }
                    }
                    JOINT RightInHandPinky
                    {
                      OFFSET -3.16105 0.469368 -1.20179
                      CHANNELS 3 Zrotation Xrotation Yrotation
                      JOINT RightHandPinky1
                      {
                        OFFSET -4.14105 -0.022105 -1.09053
                        CHANNELS 3 Zrotation Xrotation Yrotation
                        JOINT RightHandPinky2
                        {
                          OFFSET -2.75653 0 0
                          CHANNELS 3 Zrotation Xrotation Yrotation
                          JOINT RightHandPinky3
                          {
                            OFFSET -1.74189 0 0
                            CHANNELS 3 Zrotation Xrotation Yrotation
                            End Site
                            {
                              OFFSET -1.645 0 0
                            }
                          }
                        }
                      }
                    }
                  }
                }
              }
            }
            JOINT LeftShoulder
            {
              OFFSET 3.27252 6.91581 -0.0198585
              CHANNELS 3 Zrotation Xrotation Yrotation
              JOINT LeftArm
              {
                OFFSET 12.8319 -0.0466028 -0.0574599
                CHANNELS 3 Zrotation Xrotation Yrotation
                JOINT LeftForeArm
                {
                  OFFSET 26.4942 -0.039105 -0.0936
                  CHANNELS 3 Zrotation Xrotation Yrotation
                  JOINT LeftHand
                  {
                    OFFSET 26.0008 0.022674 -0.016655
                    CHANNELS 3 Zrotation Xrotation Yrotation
                    JOINT LeftHandThumb1
                    {
                      OFFSET 2.48905 0.190105 3.12053
                      CHANNELS 3 Zrotation Xrotation Yrotation
                      JOINT LeftHandThumb2
                      {
                        OFFSET 3.68274 0 0
                        CHANNELS 3 Zrotation Xrotation Yrotation
                        JOINT LeftHandThumb3
                        {
                          OFFSET 2.55832 0 0
                          CHANNELS 3 Zrotation Xrotation Yrotation
                          End Site
                          {
                            OFFSET 2.194 0 0
                          }
                        }
                      }
                    }
                    JOINT LeftInHandIndex
                    {
                      OFFSET 3.22368 0.508421 1.97842
                      CHANNELS 3 Zrotation Xrotation Yrotation
                      JOINT LeftHandIndex1
                      {
                        OFFSET 5.21684 -0.091368 0.999158
                        CHANNELS 3 Zrotation Xrotation Yrotation
                        JOINT LeftHandIndex2
                        {
                          OFFSET 3.61937 0 0
                          CHANNELS 3 Zrotation Xrotation Yrotation
                          JOINT LeftHandIndex3
                          {
                            OFFSET 2.0521 0 0
                            CHANNELS 3 Zrotation Xrotation Yrotation
                            End Site
                            {
                              OFFSET 1.805 0 0
                            }
                          }
                        }
                      }
                    }
                    JOINT LeftInHandMiddle
                    {
                      OFFSET 3.38211 0.517263 0.756737
                      CHANNELS 3 Zrotation Xrotation Yrotation
                      JOINT LeftHandMiddle1
                      {
                        OFFSET 5.17411 -0.084 0.313895
                        CHANNELS 3 Zrotation Xrotation Yrotation
                        JOINT LeftHandMiddle2
                        {
                          OFFSET 3.94947 0 0
                          CHANNELS 3 Zrotation Xrotation Yrotation
                          JOINT LeftHandMiddle3
                          {
                            OFFSET 2.47579 0 0
                            CHANNELS 3 Zrotation Xrotation Yrotation
                            End Site
                            {
                              OFFSET 1.975 0 0
                            }
                          }
                        }
                      }
                    }
                    JOINT LeftInHandRing
                    {
                      OFFSET 3.36516 0.537895 -0.128947
                      CHANNELS 3 Zrotation Xrotation Yrotation
                      JOINT LeftHandRing1
                      {
                        OFFSET 4.63474 -0.022105 -0.478947
                        CHANNELS 3 Zrotation Xrotation Yrotation
                        JOINT LeftHandRing2
                        {
                          OFFSET 3.44238 0 0
                          CHANNELS 3 Zrotation Xrotation Yrotation
                          JOINT LeftHandRing3
                          {
                            OFFSET 2.3881 0 0
                            CHANNELS 3 Zrotation Xrotation Yrotation
                            End Site
                            {
                              OFFSET 1.857 0 0
                            }
                          }
                        }
                      }
                    }
                    JOINT LeftInHandPinky
                    {
                      OFFSET 3.16105 0.469368 -1.20179
                      CHANNELS 3 Zrotation Xrotation Yrotation
                      JOINT LeftHandPinky1
                      {
                        OFFSET 4.14105 -0.022105 -1.09053
                        CHANNELS 3 Zrotation Xrotation Yrotation
                        JOINT LeftHandPinky2
                        {
                          OFFSET 2.75653 0 0
                          CHANNELS 3 Zrotation Xrotation Yrotation
                          JOINT LeftHandPinky3
                          {
                            OFFSET 1.74189 0 0
                            CHANNELS 3 Zrotation Xrotation Yrotation
                            End Site
                            {
                              OFFSET 1.645 0 0
                            }
                          }
                        }
                      }
                    }
                  }
                }
              }
            }
          }
        }
      }
    }
  }
}
MOTION
Frames: 2
Frame Time: 0.00833333
1.050000000000000000e+03 0.000000000000000000e+00 0.000000000000000000e+00 0.000000000000000000e+00 0.000000000000000000e+00 0.000000000000000000e+00 2.057309928163404322e+01 1.095718595908476445e+01 -8.399083730503146228e+01 -2.275790821134886954e+00 -3.517855531504183375e+01 -3.029088966024222174e+00 -9.270245850045135683e-01 1.329878526679204143e+01 -7.772969217190294877e+00 1.445254744611244035e+01 8.709141150535518960e+00 2.737347942956593272e+01 1.741697496078906937e+01 -3.141205438601680555e+01 6.009013364966953930e+00 -2.362993003392292124e+00 3.780235849565998763e+01 6.338181897685220889e+00 -7.129423272594467953e+00 -1.707361783024154178e+01 -1.239210292009765979e+01 -3.358594205990220516e+00 3.235972999167056052e+00 7.470046137700983024e+00 -7.300905649718612000e-01 8.818992507181044882e-01 1.957803222594639792e+00 -1.227826233069440054e+00 1.438907882530547022e+00 2.853655727821248433e+00 -4.178122293863256731e-02 -3.262875251832883516e-02 4.597636030712530797e-01 1.063232863913987636e-02 -6.848734968833756209e-01 3.961166428762034286e+00 -8.120089881570589085e-01 4.572340496443922042e+00 5.201841062897404555e+00 4.192810166959207052e+00 -4.898140282749288588e+00 5.722885157363153397e+00 6.406750158489582248e+01 -2.544331024189101598e+01 3.266000801091133354e+01 2.653074538725114095e+01 -1.364779449540936440e+01 7.942115925366894658e+01 1.296764365875560721e+01 -2.866999450134489891e+01 3.464163458078038715e+00 2.818400000000000105e+01 1.072940000000000005e+01 1.915919999999999845e+01 1.834842803254437875e-14 -8.425983246007312967e-17 -1.000000000000000000e+01 1.678994199663128435e-14 2.009575002396851230e-15 -1.000000000000000000e+01 4.189625458134197459e-15 -1.749797464424879594e-15 -6.392996002461939708e-15 1.998179999999999978e+01 8.718970000000000331e-01 2.396399999999999864e+00 2.400000000000000000e+01 1.450244939108852759e-14 2.573697728545842922e-14 2.000000000000000000e+01 8.668111108148991678e-15 1.825406097389915059e-14 4.189625458134197459e-15 -1.749797464424879594e-15 -6.392996002461939708e-15 2.000000000000000000e+01 -1.547744977264068735e-15 1.412835713596864428e-14 2.400000000000000000e+01 5.376738084841506236e-15 9.184250229801931279e-15 2.000000000000000000e+01 7.474727665355379573e-16 2.884232806750488875e-14 4.189625458134197459e-15 -1.749797464424879594e-15 -6.392996002461939708e-15 1.997479999999999833e+01 -1.025649999999999951e+00 -2.819380000000000219e+00 2.400000000000000000e+01 -5.148154298488508447e-15 1.765979786376567715e-14 2.000000000000000000e+01 -1.175397586710232664e-15 2.072705587213030818e-14 4.189625458134197459e-15 -1.749797464424879594e-15 -6.392996002461939708e-15 1.978150000000000119e+01 -3.009479999999999933e+00 -8.305149999999999366e+00 2.400000000000000000e+01 -4.997877201463953457e-15 1.327952567894676167e-14 2.000000000000000000e+01 2.684622859127459200e-15 1.119035307449617617e-14 8.591680410998190354e+00 -1.380271151260559748e+01 -4.214302428638058018e+01 -2.404475833126114637e+01 2.530822020506746028e+01 -9.278086808458500911e+01 1.280353959870433656e+01 -2.824010874783502345e+01 -2.680094058781505595e+01 -3.174033526417695938e+01 -1.405848544432881653e+01 -6.189705649631044082e+00 -2.818400000000000105e+01 1.072940000000000005e+01 -1.915919999999999845e+01 8.715517693826057127e-16 -3.266258458321297514e-15 1.000000000000000000e+01 4.639075087179345531e-15 -7.695272747641647080e-15 1.000000000000000000e+01 1.015864977423899570e-14 4.323118905958281532e-15 -2.464916195144018708e-16 -1.998179999999999978e+01 8.718970000000000331e-01 -2.396399999999999864e+00 -2.400000000000000000e+01 -5.216069475940942706e-15 -1.378622536671611881e-14 -2.000000000000000000e+01 7.966353052378077611e-16 -1.560043631662829628e-14 1.015864977423899570e-14 4.323118905958281532e-15 -2.464916195144018708e-16 -2.000000000000000000e+01 1.347097586197958234e-15 -6.386934908182569131e-15 -2.400000000000000000e+01 7.525262379219172752e-15 9.163181567519572471e-15 -2.000000000000000000e+01 2.904189030994134879e-16 -4.153339157010381954e-15 1.015864977423899570e-14 4.323118905958281532e-15 -2.464916195144018708e-16 -1.997479999999999833e+01 -1.025649999999999951e+00 2.819380000000000219e+00 -2.400000000000000000e+01 2.486911159470223699e-15 1.396246417443041889e-15 -2.000000000000000000e+01 -1.738513252153341907e-15 9.319777542147575010e-15 1.015864977423899570e-14 4.323118905958281532e-15 -2.464916195144018708e-16 -1.978150000000000119e+01 -3.009479999999999933e+00 8.305149999999999366e+00 -2.400000000000000000e+01 1.285103920228981078e-15 2.609037231559551973e-15 -2.000000000000000000e+01 -3.881652136722539204e-15 -1.062223735464993361e-14
1.050000000000000000e+03 0.000000000000000000e+00 0.000000000000000000e+00 0.000000000000000000e+00 0.000000000000000000e+00 0.000000000000000000e+00 2.049466927719083031e+01 1.097488194404101591e+01 -8.355043512454477650e+01 -2.340617755612843354e+00 -3.488178908177638959e+01 -3.065711690420574342e+00 -9.303410566802261528e-01 1.323508522144575750e+01 -7.851352377384237968e+00 1.448735100053468017e+01 8.640961174785843468e+00 2.719292095673215925e+01 1.713276118599842945e+01 -3.138479476700725712e+01 5.747254240844739570e+00 -2.230372308594210651e+00 3.773309526820843018e+01 6.214331419926127253e+00 -7.147749682340339916e+00 -1.699907058381823788e+01 -1.256296012221433145e+01 -3.318941563543289064e+00 3.239502822738305365e+00 7.603211734115259191e+00 -7.200234038878022824e-01 8.814561828906153362e-01 1.994358986370161624e+00 -1.211386229392825920e+00 1.437700173539880222e+00 2.902730498158733852e+00 -3.631649362996552943e-02 -3.281681507859909863e-02 4.417102850899574662e-01 2.670170067460642116e-02 -6.971816987806278565e-01 3.714750248347510109e+00 -7.087389163528055036e-01 4.625741843741787207e+00 4.977020621972588543e+00 4.101959899088737593e+00 -4.988302101440844183e+00 5.809842867553417278e+00 6.395905596937725335e+01 -2.521146996842358945e+01 3.285552113987159828e+01 2.621442109922952568e+01 -1.345429744842822473e+01 7.930692690718993276e+01 1.295959653926013289e+01 -2.858514715202425904e+01 3.566262043018733507e+00 2.818400000000000105e+01 1.072940000000000005e+01 1.915919999999999845e+01 1.837655638126578849e-14 -7.011635725814777806e-17 -1.000000000000000000e+01 1.675599893748040698e-14 2.011277062306992510e-15 -1.000000000000000000e+01 4.184037083885911244e-15 -1.760324642272885691e-15 -6.377513370934654975e-15 1.998179999999999978e+01 8.718970000000000331e-01 2.396399999999999864e+00 2.400000000000000000e+01 1.451448836403389310e-14 2.580438750118461040e-14 2.000000000000000000e+01 8.675675251640344611e-15 1.824646712007218372e-14 4.184037083885911244e-15 -1.760324642272885691e-15 -6.377513370934654975e-15 2.000000000000000000e+01 -1.541023590478927007e-15 1.410082246180285146e-14 2.400000000000000000e+01 5.408639395721026336e-15 9.245000913970227265e-15 2.000000000000000000e+01 7.468003701909565605e-16 2.884424318396671736e-14 4.184037083885911244e-15 -1.760324642272885691e-15 -6.377513370934654975e-15 1.997479999999999833e+01 -1.025649999999999951e+00 -2.819380000000000219e+00 2.400000000000000000e+01 -5.143035860584607465e-15 1.768276616379227909e-14 2.000000000000000000e+01 -1.167749281403125223e-15 2.073279903674555251e-14 4.184037083885911244e-15 -1.760324642272885691e-15 -6.377513370934654975e-15 1.978150000000000119e+01 -3.009479999999999933e+00 -8.305149999999999366e+00 2.400000000000000000e+01 -4.968378200605163613e-15 1.331388667900847727e-14 2.000000000000000000e+01 2.701522999581448565e-15 1.118968524412039787e-14 8.533964520933974285e+00 -1.380322978559071601e+01 -4.204336436660504006e+01 -2.436282981560166760e+01 2.514253684292163271e+01 -9.253583055147727521e+01 1.250722100703610806e+01 -2.828751128749362209e+01 -2.753328862475963135e+01 -3.173655390579766689e+01 -1.398738469946333396e+01 -6.326732430522865158e+00 -2.818400000000000105e+01 1.072940000000000005e+01 -1.915919999999999845e+01 8.850137477475509356e-16 -3.256589328713061838e-15 1.000000000000000000e+01 4.653848455691624295e-15 -7.684708065624448628e-15 1.000000000000000000e+01 1.016478407864682067e-14 4.300395010717160881e-15 -2.527068415402453908e-16 -1.998179999999999978e+01 8.718970000000000331e-01 -2.396399999999999864e+00 -2.400000000000000000e+01 -5.203771297163333801e-15 -1.379402916456780203e-14 -2.000000000000000000e+01 7.715988888285283006e-16 -1.556545077197641250e-14 1.016478407864682067e-14 4.300395010717160881e-15 -2.527068415402453908e-16 -2.000000000000000000e+01 1.337975508208426400e-15 -6.381169043411679534e-15 -2.400000000000000000e+01 7.528227684251377392e-15 9.107001407254221723e-15 -2.000000000000000000e+01 2.777617912441894222e-16 -4.157515298659579202e-15 1.016478407864682067e-14 4.300395010717160881e-15 -2.527068415402453908e-16 -1.997479999999999833e+01 -1.025649999999999951e+00 2.819380000000000219e+00 -2.400000000000000000e+01 2.489510364610961837e-15 1.409376024207435356e-15 -2.000000000000000000e+01 -1.727319504420121683e-15 9.295340440945194216e-15 1.016478407864682067e-14 4.300395010717160881e-15 -2.527068415402453908e-16 -1.978150000000000119e+01 -3.009479999999999933e+00 8.305149999999999366e+00 -2.400000000000000000e+01 1.284010691614896296e-15 2.596458901704873755e-15 -2.000000000000000000e+01 -3.859783199583118558e-15 -1.067478844849991111e-14
